<svg xmlns="http://www.w3.org/2000/svg" viewBox="0 0 1200 750" width="1200" height="750" fill="none">
  <rect width="1200" height="750" fill="#ECFEFF"/>
  <circle cx="1035" cy="120" r="155" fill="#FDE68A" opacity="0.7"/>
  <circle cx="170" cy="620" r="210" fill="#99F6E4" opacity="0.55"/>
  <rect x="210" y="180" width="780" height="430" rx="28" fill="#ffffff" stroke="#BAE6FD" stroke-width="4"/>
  <rect x="500" y="250" width="200" height="170" rx="10" fill="#0F766E"/>
  <rect x="545" y="210" width="110" height="40" rx="6" fill="#F59E0B"/>
  <path d="M360 470C430 395 495 360 600 360C705 360 770 395 840 470" stroke="#2DD4BF" stroke-width="12" stroke-linecap="round"/>
  <rect x="290" y="510" width="620" height="38" rx="19" fill="#E2E8F0"/>
  <circle cx="330" cy="529" r="8" fill="#0F766E"/>
  <rect x="355" y="523" width="180" height="12" rx="6" fill="#94A3B8"/>
  <rect x="560" y="523" width="220" height="12" rx="6" fill="#94A3B8"/>
  <rect x="795" y="517" width="90" height="24" rx="12" fill="#0F766E"/>
  <text x="600" y="120" font-family="Arial, sans-serif" font-size="40" font-weight="700" text-anchor="middle" fill="#0F172A">Umroh Terbaik 2026</text>
</svg>
